<svg xmlns="http://www.w3.org/2000/svg" width="640" height="360" viewBox="0 0 640 360" fill="none">
  <rect width="640" height="360" rx="20" fill="#0B1120"/>
  <rect x="36" y="36" width="568" height="288" rx="14" fill="#0F172A" stroke="#1E293B" stroke-width="2"/>
  <rect x="64" y="64" width="344" height="40" rx="8" fill="#111C33" stroke="#1E3A8A" stroke-opacity="0.5"/>
  <circle cx="88" cy="84" r="10" fill="#2563EB"/>
  <rect x="108" y="74" width="120" height="20" rx="4" fill="#1E293B"/>
  <text x="114" y="88" fill="#BFDBFE" font-family="Inter, Helvetica, Arial, sans-serif" font-size="12">status:500 service:web</text>
  <rect x="64" y="120" width="512" height="4" rx="2" fill="#1F2937"/>
  <rect x="64" y="132" width="512" height="168" rx="12" fill="#111C33" stroke="#1E3A8A" stroke-opacity="0.5"/>
  <text x="80" y="160" fill="#E2E8F0" font-family="Inter, Helvetica, Arial, sans-serif" font-size="14" font-weight="600">Errors Over Time</text>
  <polyline points="84,232 124,220 164,206 204,210 244,196 284,224 324,212 364,200 404,188 444,194 484,168 524,184" fill="none" stroke="#F97316" stroke-width="3" stroke-linecap="round" stroke-linejoin="round"/>
  <circle cx="484" cy="168" r="6" fill="#F97316"/>
  <rect x="456" y="180" width="120" height="60" rx="8" fill="#0B1120" stroke="#F97316" stroke-opacity="0.6"/>
  <text x="468" y="204" fill="#F8FAFC" font-family="Inter, Helvetica, Arial, sans-serif" font-size="12" font-weight="500">Deployment #482</text>
  <text x="468" y="220" fill="#FECACA" font-family="Inter, Helvetica, Arial, sans-serif" font-size="11">error rate spike · +32%</text>
  <g transform="translate(400,72)">
    <rect width="156" height="40" rx="8" fill="#111827" stroke="#1E3A8A" stroke-opacity="0.4"/>
    <text x="16" y="25" fill="#C7D2FE" font-family="Inter, Helvetica, Arial, sans-serif" font-size="12">Saved view: Critical errors</text>
  </g>
  <g transform="translate(68,256)">
    <rect width="132" height="48" rx="10" fill="#111827" stroke="#2563EB" stroke-opacity="0.4"/>
    <text x="16" y="24" fill="#BFDBFE" font-family="Inter, Helvetica, Arial, sans-serif" font-size="12">Auto-anomaly: on</text>
    <text x="16" y="38" fill="#64748B" font-family="Inter, Helvetica, Arial, sans-serif" font-size="10">sensitivity 85%</text>
  </g>
</svg>
