<svg xmlns="http://www.w3.org/2000/svg" width="640" height="360" viewBox="0 0 640 360" fill="none">
  <rect width="640" height="360" rx="20" fill="#0F172A"/>
  <rect x="28" y="28" width="584" height="304" rx="12" fill="#111C33" stroke="#1E293B" stroke-width="2"/>
  <rect x="52" y="64" width="240" height="28" rx="6" fill="#1F2937"/>
  <text x="64" y="83" fill="#E2E8F0" font-family="Inter, Helvetica, Arial, sans-serif" font-size="16" font-weight="600">Log Traffic Overview</text>
  <rect x="52" y="112" width="240" height="184" rx="10" fill="#0EA5E9" fill-opacity="0.08" stroke="#38BDF8" stroke-opacity="0.6" stroke-width="2"/>
  <text x="72" y="144" fill="#E2E8F0" font-family="Inter, Helvetica, Arial, sans-serif" font-size="14" font-weight="500">Requests by Source</text>
  <g transform="translate(72,162)">
    <rect width="12" height="12" rx="3" fill="#38BDF8"/>
    <text x="20" y="10" fill="#E2E8F0" font-family="Inter, Helvetica, Arial, sans-serif" font-size="12">Search Crawlers · 42%</text>
  </g>
  <g transform="translate(72,188)">
    <rect width="12" height="12" rx="3" fill="#F97316"/>
    <text x="20" y="10" fill="#E2E8F0" font-family="Inter, Helvetica, Arial, sans-serif" font-size="12">Customer Traffic · 33%</text>
  </g>
  <g transform="translate(72,214)">
    <rect width="12" height="12" rx="3" fill="#22C55E"/>
    <text x="20" y="10" fill="#E2E8F0" font-family="Inter, Helvetica, Arial, sans-serif" font-size="12">Internal Services · 18%</text>
  </g>
  <g transform="translate(72,240)">
    <rect width="12" height="12" rx="3" fill="#FACC15"/>
    <text x="20" y="10" fill="#E2E8F0" font-family="Inter, Helvetica, Arial, sans-serif" font-size="12">Unknown Bots · 7%</text>
  </g>
  <g transform="translate(332,96)">
    <rect width="248" height="28" rx="6" fill="#1F2937"/>
    <text x="12" y="19" fill="#93C5FD" font-family="Inter, Helvetica, Arial, sans-serif" font-size="13" font-weight="500">Events Ingested (24h)</text>
    <text x="192" y="19" fill="#F8FAFC" font-family="Inter, Helvetica, Arial, sans-serif" font-size="14" font-weight="600">3.2M</text>
  </g>
  <g transform="translate(332,144)">
    <rect width="248" height="28" rx="6" fill="#1F2937"/>
    <text x="12" y="19" fill="#93C5FD" font-family="Inter, Helvetica, Arial, sans-serif" font-size="13" font-weight="500">Unique Hosts</text>
    <text x="192" y="19" fill="#F8FAFC" font-family="Inter, Helvetica, Arial, sans-serif" font-size="14" font-weight="600">186</text>
  </g>
  <g transform="translate(332,192)">
    <rect width="248" height="120" rx="10" fill="#0EA5E9" fill-opacity="0.08" stroke="#38BDF8" stroke-opacity="0.4" stroke-width="2"/>
    <text x="16" y="36" fill="#E2E8F0" font-family="Inter, Helvetica, Arial, sans-serif" font-size="14" font-weight="500">Top Paths</text>
    <text x="16" y="64" fill="#Cbd5f5" font-family="Inter, Helvetica, Arial, sans-serif" font-size="12">/api/search · 28%</text>
    <text x="16" y="88" fill="#Cbd5f5" font-family="Inter, Helvetica, Arial, sans-serif" font-size="12">/checkout · 19%</text>
    <text x="16" y="112" fill="#Cbd5f5" font-family="Inter, Helvetica, Arial, sans-serif" font-size="12">/auth/session · 12%</text>
  </g>
</svg>
